<mxfile host="app.diagrams.net" modified="2023-11-23T09:08:20.019Z" agent="Mozilla/5.0 (Windows NT 10.0; Win64; x64) AppleWebKit/537.36 (KHTML, like Gecko) Chrome/119.0.0.0 Safari/537.36" etag="VXP0lTwb0qdXuPkGCy_d" version="22.1.3" type="device">
  <diagram name="Page-1" id="m1bgd3Mfc1xwp1Ts8sWj">
    <mxGraphModel dx="792" dy="1132" grid="1" gridSize="10" guides="1" tooltips="1" connect="1" arrows="1" fold="1" page="1" pageScale="1" pageWidth="1169" pageHeight="827" math="0" shadow="0">
      <root>
        <mxCell id="0" />
        <mxCell id="1" parent="0" />
        <mxCell id="HvDxAgTQF3HfjRSqFXh5-1" value="Client" style="ellipse;whiteSpace=wrap;html=1;fillColor=#dae8fc;strokeColor=#6c8ebf;" vertex="1" parent="1">
          <mxGeometry x="340" y="50" width="90" height="50" as="geometry" />
        </mxCell>
        <mxCell id="HvDxAgTQF3HfjRSqFXh5-2" value="GraphQL Endpoint" style="ellipse;whiteSpace=wrap;html=1;fillColor=#fff2cc;strokeColor=#d6b656;" vertex="1" parent="1">
          <mxGeometry x="340" y="150" width="90" height="50" as="geometry" />
        </mxCell>
        <mxCell id="HvDxAgTQF3HfjRSqFXh5-3" value="" style="endArrow=classic;html=1;rounded=0;exitX=0.5;exitY=1;exitDx=0;exitDy=0;" edge="1" parent="1" source="HvDxAgTQF3HfjRSqFXh5-1" target="HvDxAgTQF3HfjRSqFXh5-2">
          <mxGeometry width="50" height="50" relative="1" as="geometry">
            <mxPoint x="380" y="400" as="sourcePoint" />
            <mxPoint x="430" y="350" as="targetPoint" />
          </mxGeometry>
        </mxCell>
        <mxCell id="HvDxAgTQF3HfjRSqFXh5-4" value="Stardog" style="ellipse;whiteSpace=wrap;html=1;fillColor=#d5e8d4;strokeColor=#82b366;" vertex="1" parent="1">
          <mxGeometry x="340" y="250" width="90" height="60" as="geometry" />
        </mxCell>
        <mxCell id="HvDxAgTQF3HfjRSqFXh5-6" value="" style="endArrow=classic;html=1;rounded=0;exitX=0.5;exitY=1;exitDx=0;exitDy=0;" edge="1" parent="1" source="HvDxAgTQF3HfjRSqFXh5-2" target="HvDxAgTQF3HfjRSqFXh5-4">
          <mxGeometry width="50" height="50" relative="1" as="geometry">
            <mxPoint x="380" y="400" as="sourcePoint" />
            <mxPoint x="430" y="350" as="targetPoint" />
          </mxGeometry>
        </mxCell>
        <mxCell id="HvDxAgTQF3HfjRSqFXh5-8" value="Vinyl Data Source" style="ellipse;whiteSpace=wrap;html=1;fillColor=#b1ddf0;strokeColor=#10739e;" vertex="1" parent="1">
          <mxGeometry x="340" y="360" width="90" height="60" as="geometry" />
        </mxCell>
        <mxCell id="HvDxAgTQF3HfjRSqFXh5-9" value="" style="endArrow=classic;html=1;rounded=0;" edge="1" parent="1" target="HvDxAgTQF3HfjRSqFXh5-8">
          <mxGeometry width="50" height="50" relative="1" as="geometry">
            <mxPoint x="385" y="310" as="sourcePoint" />
            <mxPoint x="430" y="350" as="targetPoint" />
          </mxGeometry>
        </mxCell>
        <mxCell id="HvDxAgTQF3HfjRSqFXh5-11" value="" style="endArrow=none;dashed=1;html=1;dashPattern=1 3;strokeWidth=2;rounded=0;entryX=0.089;entryY=0.733;entryDx=0;entryDy=0;entryPerimeter=0;" edge="1" parent="1" target="HvDxAgTQF3HfjRSqFXh5-4">
          <mxGeometry width="50" height="50" relative="1" as="geometry">
            <mxPoint x="290" y="320" as="sourcePoint" />
            <mxPoint x="430" y="350" as="targetPoint" />
          </mxGeometry>
        </mxCell>
        <mxCell id="HvDxAgTQF3HfjRSqFXh5-12" value="ApolloServer" style="rounded=1;whiteSpace=wrap;html=1;fillColor=#e1d5e7;strokeColor=#9673a6;" vertex="1" parent="1">
          <mxGeometry x="260" y="320" width="80" height="40" as="geometry" />
        </mxCell>
      </root>
    </mxGraphModel>
  </diagram>
</mxfile>
